<svg xmlns="http://www.w3.org/2000/svg" width="1024" height="1024" viewBox="0 0 256 256" fill="none"><rect width="256" height="256" rx="32" fill="#262626"/><rect x="128" y="32" width="32" height="32" rx="8" fill="#AD6AC4"/><path stroke="#fff" stroke-width="4" d="M160 48h32"/><rect x="192" y="32" width="32" height="32" rx="8" stroke="#FFF" stroke-width="4"/><path stroke="#fff" stroke-width="4" d="M208 64v64m0 32v32"/><rect x="64" y="192" width="32" height="32" rx="8" fill="#FD9A24"/><path stroke="#fff" stroke-width="4" d="M96 208h32"/><rect x="142" y="144" width="4" height="52" rx="2" fill="#fff"/><rect x="142" y="144" width="52" height="4" rx="2" fill="#fff"/><rect x="192" y="128" width="32" height="32" rx="8" fill="#22D328"/><rect x="128" y="192" width="32" height="32" rx="8" fill="#2668C5"/><g fill="#fff"><rect x="32" y="112" width="12" height="48" rx="6" transform="rotate(45 64 128)"/><rect x="32" y="96" width="12" height="48" rx="6" transform="rotate(-45 64 128)"/></g><g transform="rotate(180 80 128)" fill="#fff"><rect x="32" y="112" width="12" height="48" rx="6" transform="rotate(45 64 128)"/><rect x="32" y="96" width="12" height="48" rx="6" transform="rotate(-45 64 128)"/></g><rect x="74" y="76" width="12" height="96" rx="6" fill="#fff" transform="rotate(15 64 128)"/><rect x="192" y="192" width="32" height="32" rx="8" fill="#DDD328"/></svg>